<svg xmlns="http://www.w3.org/2000/svg" xmlns:xlink="http://www.w3.org/1999/xlink" version="1.1" x="0px" y="0px" viewBox="-255 347 100 125" style="enable-background:new -255 347 100 100;" xml:space="preserve"><path d="M-162.9,409.4h-84.2c-1.7,0-3,1.3-3,3V427c0,1.7,1.3,3,3,3h84.2c1.7,0,3-1.3,3-3v-14.7  C-159.9,410.7-161.3,409.4-162.9,409.4z M-162.9,427h-84.2v-14.7h84.2V427z M-199.8,422c1.3,0,2.3-1,2.3-2.3c0-1.3-1-2.3-2.3-2.3  c-1.3,0-2.3,1-2.3,2.3C-202.1,421-201,422-199.8,422z M-189.3,422c1.3,0,2.3-1,2.3-2.3c0-1.3-1-2.3-2.3-2.3c-1.3,0-2.3,1-2.3,2.3  C-191.6,421-190.6,422-189.3,422z M-210.2,422c1.3,0,2.3-1,2.3-2.3c0-1.3-1-2.3-2.3-2.3c-1.3,0-2.3,1-2.3,2.3  C-212.5,421-211.5,422-210.2,422z M-220.7,422c1.3,0,2.3-1,2.3-2.3c0-1.3-1-2.3-2.3-2.3c-1.3,0-2.3,1-2.3,2.3  C-223,421-221.9,422-220.7,422z M-178.9,422c1.3,0,2.3-1,2.3-2.3c0-1.3-1-2.3-2.3-2.3c-1.3,0-2.3,1-2.3,2.3  C-181.2,421-180.2,422-178.9,422z M-231.1,422c1.3,0,2.3-1,2.3-2.3c0-1.3-1-2.3-2.3-2.3s-2.3,1-2.3,2.3  C-233.4,421-232.4,422-231.1,422z M-168.4,422c1.3,0,2.3-1,2.3-2.3c0-1.3-1-2.3-2.3-2.3c-1.3,0-2.3,1-2.3,2.3  C-170.7,421-169.7,422-168.4,422z M-241.6,422c1.3,0,2.3-1,2.3-2.3c0-1.3-1-2.3-2.3-2.3c-1.3,0-2.3,1-2.3,2.3  C-243.9,421-242.8,422-241.6,422z M-205,405.5c11.5,0,20.8-9.3,20.8-20.8c0-8.5-5.1-16.1-13-19.3c-2.5-1-5.1-1.5-7.7-1.5  c-10.5,0-19.3,7.8-20.6,18.2c-0.1,0.8-0.2,1.7-0.2,2.6C-225.8,396.2-216.5,405.5-205,405.5z M-222.6,382.5  c1.1-8.9,8.7-15.6,17.6-15.6c2.3,0,4.5,0.4,6.6,1.3c6.8,2.7,11.1,9.2,11.1,16.5c0,9.8-8,17.8-17.8,17.8c-9.8,0-17.8-8-17.8-17.8  C-222.8,384-222.7,383.2-222.6,382.5z M-213.4,393.2c0.3,0.3,0.7,0.4,1.1,0.4s0.8-0.1,1.1-0.4l6.3-6.3l6.3,6.3  c0.3,0.3,0.7,0.4,1.1,0.4s0.8-0.1,1.1-0.4c0.6-0.6,0.6-1.5,0-2.1l-6.3-6.3l6.3-6.3c0.6-0.6,0.6-1.5,0-2.1c-0.6-0.6-1.5-0.6-2.1,0  l-6.3,6.3l-6.3-6.3c-0.6-0.6-1.5-0.6-2.1,0c-0.6,0.6-0.6,1.5,0,2.1l6.3,6.3l-6.3,6.3C-214,391.6-214,392.6-213.4,393.2z"/></svg>